<svg width="22" height="21" viewBox="0 0 22 21" fill="none" xmlns="http://www.w3.org/2000/svg">
<mask id="path-1-inside-1_78_6625" fill="white">
<path d="M20.2052 0.0512378L17.9879 1.06269C17.8459 1.12837 17.7149 1.21813 17.6035 1.32979L13.9903 4.95308L1.54743 3.45779C1.32242 3.43152 1.09524 3.50814 0.935769 3.67015L0.243285 4.36416C-0.12371 4.73196 -0.0101163 5.35372 0.463919 5.56608L9.38102 9.5725L6.82079 12.1384H2.34914C2.15253 12.1384 1.96467 12.2172 1.82486 12.3551L1.45131 12.7316C1.07995 13.1038 1.20228 13.7322 1.68287 13.938L5.45549 15.558L7.07201 19.3389C7.27735 19.8206 7.90649 19.9432 8.27569 19.571L8.6514 19.1945C8.79121 19.0544 8.86766 18.8661 8.86766 18.669V14.1875L11.4279 11.6217L15.4255 20.5606C15.6374 21.0357 16.2578 21.1495 16.6248 20.7817L17.3173 20.0877C17.4789 19.9257 17.5554 19.7002 17.5292 19.4747L16.035 7.00448L19.6503 3.38118C19.7617 3.26953 19.8513 3.14036 19.9168 2.99587L20.926 0.773729C21.138 0.316143 20.6661 -0.158935 20.2052 0.0512378Z"/>
</mask>
<path d="M20.2052 0.0512378L19.3754 -1.76851L19.3751 -1.76838L20.2052 0.0512378ZM17.9879 1.06269L17.1579 -0.756946L17.1483 -0.752522L17.9879 1.06269ZM17.6035 1.32979L16.1877 -0.0828698L16.1873 -0.0824418L17.6035 1.32979ZM13.9903 4.95308L13.7517 6.93879L14.7187 7.05501L15.4065 6.36531L13.9903 4.95308ZM1.54743 3.45779L1.78606 1.47206L1.77937 1.47128L1.54743 3.45779ZM0.935769 3.67015L2.35157 5.08284L2.36111 5.07315L0.935769 3.67015ZM0.243285 4.36416L1.65905 5.77682L0.243285 4.36416ZM0.463919 5.56608L1.28358 3.74176L1.28159 3.74087L0.463919 5.56608ZM9.38102 9.5725L10.7968 10.9852C11.2609 10.52 11.467 9.85653 11.3479 9.21028C11.2289 8.56404 10.8001 8.01748 10.2007 7.74818L9.38102 9.5725ZM6.82079 12.1384V14.1384H7.65051L8.23656 13.551L6.82079 12.1384ZM1.82486 12.3551L0.420371 10.9312L0.412633 10.9388L0.404978 10.9466L1.82486 12.3551ZM1.45131 12.7316L2.86708 14.1443L2.87119 14.1402L1.45131 12.7316ZM1.68287 13.938L2.47204 12.1002L2.47022 12.0995L1.68287 13.938ZM5.45549 15.558L7.29445 14.7718L6.97989 14.0361L6.24466 13.7203L5.45549 15.558ZM7.07201 19.3389L8.91179 18.5546L8.91098 18.5527L7.07201 19.3389ZM8.27569 19.571L6.85987 18.1584L6.8558 18.1625L8.27569 19.571ZM8.6514 19.1945L7.23563 17.7818L7.23559 17.7819L8.6514 19.1945ZM8.86766 14.1875L7.4519 12.7749L6.86766 13.3604V14.1875H8.86766ZM11.4279 11.6217L13.2536 10.8052C12.9848 10.2041 12.4373 9.77379 11.7897 9.65468C11.142 9.53557 10.4772 9.74289 10.0121 10.209L11.4279 11.6217ZM15.4255 20.5606L17.2521 19.7459L17.2513 19.7441L15.4255 20.5606ZM16.6248 20.7817L18.0405 22.1944L16.6248 20.7817ZM17.3173 20.0877L15.9015 18.6751L17.3173 20.0877ZM17.5292 19.4747L19.5158 19.2438L19.515 19.2368L17.5292 19.4747ZM16.035 7.00448L14.6192 5.59182L13.9337 6.27881L14.0492 7.24242L16.035 7.00448ZM19.6503 3.38118L18.2347 1.96839L18.2345 1.96853L19.6503 3.38118ZM19.9168 2.99587L18.0958 2.16882L18.0954 2.16977L19.9168 2.99587ZM20.926 0.773729L19.1113 -0.0668268L19.1081 -0.0600827L19.1051 -0.0533155L20.926 0.773729ZM19.3751 -1.76838L17.1579 -0.756921L18.818 2.88231L21.0352 1.87085L19.3751 -1.76838ZM17.1483 -0.752522C16.8029 -0.592784 16.4742 -0.370001 16.1877 -0.0828698L19.0192 2.74245C18.9555 2.80627 18.8889 2.84953 18.8276 2.87791L17.1483 -0.752522ZM16.1873 -0.0824418L12.5741 3.54085L15.4065 6.36531L19.0196 2.74202L16.1873 -0.0824418ZM14.2289 2.96737L1.78606 1.47208L1.3088 5.4435L13.7517 6.93879L14.2289 2.96737ZM1.77937 1.47128C0.961576 1.3758 0.116716 1.65121 -0.489574 2.26716L2.36111 5.07315C2.07376 5.36508 1.68327 5.48724 1.31548 5.44429L1.77937 1.47128ZM-0.479998 2.25749L-1.17248 2.9515L1.65905 5.77682L2.35154 5.08281L-0.479998 2.25749ZM-1.17248 2.9515C-2.52377 4.30576 -2.11154 6.60383 -0.353756 7.3913L1.28159 3.74087C2.09131 4.10361 2.27635 5.15816 1.65905 5.77682L-1.17248 2.9515ZM-0.355742 7.39041L8.56136 11.3968L10.2007 7.74818L1.28358 3.74176L-0.355742 7.39041ZM7.96525 8.15984L5.40503 10.7257L8.23656 13.551L10.7968 10.9852L7.96525 8.15984ZM6.82079 10.1384H2.34914V14.1384H6.82079V10.1384ZM2.34914 10.1384C1.61512 10.1384 0.925997 10.4325 0.420371 10.9312L3.22934 13.779C3.00333 14.0019 2.68995 14.1384 2.34914 14.1384V10.1384ZM0.404978 10.9466L0.0314301 11.3231L2.87119 14.1402L3.24474 13.7636L0.404978 10.9466ZM0.0355428 11.319C-1.33343 12.691 -0.886773 15.0132 0.895514 15.7765L2.47022 12.0995C3.29133 12.4511 3.49332 13.5167 2.86708 14.1443L0.0355428 11.319ZM0.893692 15.7757L4.66631 17.3958L6.24466 13.7203L2.47204 12.1002L0.893692 15.7757ZM3.61652 16.3443L5.23304 20.1252L8.91098 18.5527L7.29445 14.7718L3.61652 16.3443ZM5.23223 20.1233C5.99075 21.9025 8.31968 22.3666 9.69557 20.9796L6.8558 18.1625C7.4933 17.5199 8.56396 17.7387 8.91179 18.5546L5.23223 20.1233ZM9.6915 20.9837L10.0672 20.6071L7.23559 17.7819L6.85988 18.1584L9.6915 20.9837ZM10.0672 20.6071C10.5871 20.0861 10.8677 19.3873 10.8677 18.669H6.86766C6.86766 18.3449 6.99536 18.0226 7.23563 17.7818L10.0672 20.6071ZM10.8677 18.669V14.1875H6.86766V18.669H10.8677ZM10.2834 15.6002L12.8437 13.0343L10.0121 10.209L7.4519 12.7749L10.2834 15.6002ZM9.60215 12.4382L13.5998 21.3771L17.2513 19.7441L13.2536 10.8052L9.60215 12.4382ZM13.599 21.3753C14.3832 23.1334 16.6834 23.5545 18.0405 22.1944L15.209 19.3691C15.8322 18.7445 16.8917 18.9379 17.252 19.7459L13.599 21.3753ZM18.0405 22.1944L18.733 21.5004L15.9015 18.6751L15.209 19.3691L18.0405 22.1944ZM18.733 21.5004C19.3322 20.8999 19.6114 20.0665 19.5158 19.2438L15.5425 19.7057C15.4993 19.3339 15.6257 18.9515 15.9015 18.6751L18.733 21.5004ZM19.515 19.2368L18.0208 6.76654L14.0492 7.24242L15.5434 19.7127L19.515 19.2368ZM17.4507 8.41713L21.0661 4.79384L18.2345 1.96853L14.6192 5.59182L17.4507 8.41713ZM21.0659 4.79398C21.3462 4.51319 21.5734 4.18544 21.7382 3.82197L18.0954 2.16977C18.1292 2.09528 18.1773 2.02587 18.2347 1.96839L21.0659 4.79398ZM21.7378 3.82291L22.747 1.60077L19.1051 -0.0533155L18.0958 2.16882L21.7378 3.82291ZM22.7408 1.61428C23.736 -0.534216 21.5187 -2.74578 19.3754 -1.76851L21.0349 1.87099C19.8136 2.42791 18.54 1.1665 19.1113 -0.0668268L22.7408 1.61428Z" fill="#D5D8CB" mask="url(#path-1-inside-1_78_6625)"/>
</svg>
