<svg width="16" height="16" viewBox="0 0 16 16" fill="none" xmlns="http://www.w3.org/2000/svg">
<path fill-rule="evenodd" clip-rule="evenodd" d="M4.33333 4.00016C4.33333 4.36835 4.63181 4.66683 5 4.66683C5.36819 4.66683 5.66667 4.36835 5.66667 4.00016V2.00016C5.66667 1.63197 5.36819 1.3335 5 1.3335C4.63181 1.3335 4.33333 1.63197 4.33333 2.00016L4.33333 4.00016ZM6.66667 4.00016H9.33333V2.66683H6.66667V4.00016ZM12.6667 13.3335V2.66683C13.403 2.66683 14 3.26378 14 4.00016V13.3335C14 14.0699 13.403 14.6668 12.6667 14.6668H3.33333C2.59695 14.6668 2 14.0699 2 13.3335V4.00016C2 3.26378 2.59695 2.66683 3.33333 2.66683L3.33333 13.3335H12.6667ZM11 4.66683C10.6318 4.66683 10.3333 4.36835 10.3333 4.00016V2.00016C10.3333 1.63197 10.6318 1.3335 11 1.3335C11.3682 1.3335 11.6667 1.63197 11.6667 2.00016V4.00016C11.6667 4.36835 11.3682 4.66683 11 4.66683ZM5.33333 7.66683C5.70152 7.66683 6 7.36835 6 7.00016C6 6.63197 5.70152 6.3335 5.33333 6.3335C4.96514 6.3335 4.66667 6.63197 4.66667 7.00016C4.66667 7.36835 4.96514 7.66683 5.33333 7.66683ZM8 7.66683C8.36819 7.66683 8.66667 7.36835 8.66667 7.00016C8.66667 6.63197 8.36819 6.3335 8 6.3335C7.63181 6.3335 7.33333 6.63197 7.33333 7.00016C7.33333 7.36835 7.63181 7.66683 8 7.66683ZM11.3333 7.00016C11.3333 7.36835 11.0349 7.66683 10.6667 7.66683C10.2985 7.66683 10 7.36835 10 7.00016C10 6.63197 10.2985 6.3335 10.6667 6.3335C11.0349 6.3335 11.3333 6.63197 11.3333 7.00016ZM6 9.3335C6 9.70169 5.70152 10.0002 5.33333 10.0002C4.96514 10.0002 4.66667 9.70169 4.66667 9.3335C4.66667 8.96531 4.96514 8.66683 5.33333 8.66683C5.70152 8.66683 6 8.96531 6 9.3335ZM8 10.0002C8.36819 10.0002 8.66667 9.70169 8.66667 9.3335C8.66667 8.96531 8.36819 8.66683 8 8.66683C7.63181 8.66683 7.33333 8.96531 7.33333 9.3335C7.33333 9.70169 7.63181 10.0002 8 10.0002ZM11.3333 9.3335C11.3333 9.70169 11.0349 10.0002 10.6667 10.0002C10.2985 10.0002 10 9.70169 10 9.3335C10 8.96531 10.2985 8.66683 10.6667 8.66683C11.0349 8.66683 11.3333 8.96531 11.3333 9.3335ZM5.33333 12.3335C5.70152 12.3335 6 12.035 6 11.6668C6 11.2986 5.70152 11.0002 5.33333 11.0002C4.96514 11.0002 4.66667 11.2986 4.66667 11.6668C4.66667 12.035 4.96514 12.3335 5.33333 12.3335ZM8 12.3335C8.36819 12.3335 8.66667 12.035 8.66667 11.6668C8.66667 11.2986 8.36819 11.0002 8 11.0002C7.63181 11.0002 7.33333 11.2986 7.33333 11.6668C7.33333 12.035 7.63181 12.3335 8 12.3335ZM11.3333 11.6668C11.3333 12.035 11.0349 12.3335 10.6667 12.3335C10.2985 12.3335 10 12.035 10 11.6668C10 11.2986 10.2985 11.0002 10.6667 11.0002C11.0349 11.0002 11.3333 11.2986 11.3333 11.6668Z" fill="#D5D8CB"/>
</svg>
