<svg width="22" height="22" viewBox="0 0 22 22" fill="none" xmlns="http://www.w3.org/2000/svg">
<path fill-rule="evenodd" clip-rule="evenodd" d="M11.8565 3.43817L12.2536 4.12467H13.0467H14.2087V5.49967H7.79199V4.12467H8.95393H9.74701L10.1441 3.43817C10.2255 3.29759 10.3741 3.20801 10.542 3.20801H11.4587C11.6266 3.20801 11.7752 3.29759 11.8565 3.43817ZM7.33366 2.74967H8.95393C9.27092 2.20169 9.8634 1.83301 10.542 1.83301H11.4587C12.1373 1.83301 12.7297 2.20169 13.0467 2.74967H14.667C15.1733 2.74967 15.5837 3.16008 15.5837 3.66634H16.5003C17.5128 3.66634 18.3337 4.48715 18.3337 5.49967V8.24967V18.333C18.3337 19.3455 17.5128 20.1663 16.5003 20.1663H5.50033C4.4878 20.1663 3.66699 19.3455 3.66699 18.333V5.49967C3.66699 4.48715 4.4878 3.66634 5.50033 3.66634H6.41699C6.41699 3.16008 6.8274 2.74967 7.33366 2.74967ZM15.5837 5.04134V5.95801C15.5837 6.46427 15.1733 6.87467 14.667 6.87467H7.33366C6.8274 6.87467 6.41699 6.46427 6.41699 5.95801V5.04134H5.50033C5.24719 5.04134 5.04199 5.24654 5.04199 5.49967V18.333C5.04199 18.5861 5.24719 18.7913 5.50033 18.7913H16.5003C16.7535 18.7913 16.9587 18.5861 16.9587 18.333V8.24967V5.49967C16.9587 5.24654 16.7535 5.04134 16.5003 5.04134H15.5837ZM6.41699 9.85384C6.41699 9.47415 6.7248 9.16634 7.10449 9.16634H10.3128C10.6925 9.16634 11.0003 9.47415 11.0003 9.85384C11.0003 10.2335 10.6925 10.5413 10.3128 10.5413H7.10449C6.7248 10.5413 6.41699 10.2335 6.41699 9.85384ZM7.10449 11.9163C6.7248 11.9163 6.41699 12.2241 6.41699 12.6038C6.41699 12.9835 6.7248 13.2913 7.10449 13.2913H14.8962C15.2759 13.2913 15.5837 12.9835 15.5837 12.6038C15.5837 12.2241 15.2759 11.9163 14.8962 11.9163H7.10449ZM6.41699 15.3538C6.41699 14.9741 6.7248 14.6663 7.10449 14.6663H14.8962C15.2759 14.6663 15.5837 14.9741 15.5837 15.3538C15.5837 15.7335 15.2759 16.0413 14.8962 16.0413H7.10449C6.7248 16.0413 6.41699 15.7335 6.41699 15.3538Z" fill="#003300"/>
</svg>
