<svg width="24" height="24" viewBox="0 0 24 24" fill="none" xmlns="http://www.w3.org/2000/svg">
<path d="M20.0001 8.02393L14.0001 2.76393C13.4501 2.27198 12.738 2 12.0001 2C11.2622 2 10.5501 2.27198 10.0001 2.76393L4.00009 8.02393C3.68246 8.30801 3.42899 8.65649 3.25657 9.04618C3.08414 9.43586 2.99671 9.85781 3.00009 10.2839V19.0239C3.00009 19.8196 3.31617 20.5826 3.87877 21.1453C4.44138 21.7079 5.20445 22.0239 6.00009 22.0239H18.0001C18.7957 22.0239 19.5588 21.7079 20.1214 21.1453C20.684 20.5826 21.0001 19.8196 21.0001 19.0239V10.2739C21.0021 9.84949 20.9139 9.42947 20.7416 9.04161C20.5692 8.65375 20.3165 8.30689 20.0001 8.02393ZM14.0001 20.0239H10.0001V15.0239C10.0001 14.7587 10.1055 14.5044 10.293 14.3168C10.4805 14.1293 10.7349 14.0239 11.0001 14.0239H13.0001C13.2653 14.0239 13.5197 14.1293 13.7072 14.3168C13.8947 14.5044 14.0001 14.7587 14.0001 15.0239V20.0239ZM19.0001 19.0239C19.0001 19.2891 18.8947 19.5435 18.7072 19.731C18.5197 19.9186 18.2653 20.0239 18.0001 20.0239H16.0001V15.0239C16.0001 14.2283 15.684 13.4652 15.1214 12.9026C14.5588 12.34 13.7957 12.0239 13.0001 12.0239H11.0001C10.2044 12.0239 9.44138 12.34 8.87877 12.9026C8.31616 13.4652 8.00009 14.2283 8.00009 15.0239V20.0239H6.00009C5.73488 20.0239 5.48052 19.9186 5.29299 19.731C5.10545 19.5435 5.00009 19.2891 5.00009 19.0239V10.2739C5.00027 10.1319 5.03069 9.99163 5.08931 9.86231C5.14794 9.73299 5.23343 9.61764 5.3401 9.52393L11.3401 4.27393C11.5226 4.11361 11.7572 4.0252 12.0001 4.0252C12.243 4.0252 12.4776 4.11361 12.6601 4.27393L18.6601 9.52393C18.7668 9.61764 18.8523 9.73299 18.9109 9.86231C18.9695 9.99163 18.9999 10.1319 19.0001 10.2739V19.0239Z"/>
</svg>
