<svg width="24" height="24" viewBox="0 0 24 24" fill="none" xmlns="http://www.w3.org/2000/svg">
<path d="M12.3 12.72C12.8336 12.2581 13.2616 11.6869 13.5549 11.045C13.8482 10.4032 14 9.70571 14 9C14 7.67392 13.4732 6.40215 12.5355 5.46447C11.5979 4.52678 10.3261 4 9 4C7.67392 4 6.40215 4.52678 5.46447 5.46447C4.52678 6.40215 4 7.67392 4 9C3.99999 9.70571 4.1518 10.4032 4.44513 11.045C4.73845 11.6869 5.16642 12.2581 5.7 12.72C4.30014 13.3539 3.11247 14.3775 2.27898 15.6685C1.4455 16.9596 1.00147 18.4633 1 20C1 20.2652 1.10536 20.5196 1.29289 20.7071C1.48043 20.8946 1.73478 21 2 21C2.26522 21 2.51957 20.8946 2.70711 20.7071C2.89464 20.5196 3 20.2652 3 20C3 18.4087 3.63214 16.8826 4.75736 15.7574C5.88258 14.6321 7.4087 14 9 14C10.5913 14 12.1174 14.6321 13.2426 15.7574C14.3679 16.8826 15 18.4087 15 20C15 20.2652 15.1054 20.5196 15.2929 20.7071C15.4804 20.8946 15.7348 21 16 21C16.2652 21 16.5196 20.8946 16.7071 20.7071C16.8946 20.5196 17 20.2652 17 20C16.9985 18.4633 16.5545 16.9596 15.721 15.6685C14.8875 14.3775 13.6999 13.3539 12.3 12.72ZM9 12C8.40666 12 7.82664 11.8241 7.33329 11.4944C6.83994 11.1648 6.45542 10.6962 6.22836 10.1481C6.0013 9.59987 5.94189 8.99667 6.05764 8.41473C6.1734 7.83279 6.45912 7.29824 6.87868 6.87868C7.29824 6.45912 7.83279 6.1734 8.41473 6.05764C8.99667 5.94189 9.59987 6.0013 10.1481 6.22836C10.6962 6.45542 11.1648 6.83994 11.4944 7.33329C11.8241 7.82664 12 8.40666 12 9C12 9.79565 11.6839 10.5587 11.1213 11.1213C10.5587 11.6839 9.79565 12 9 12ZM18.74 12.32C19.38 11.5993 19.798 10.7091 19.9438 9.75634C20.0896 8.80362 19.9569 7.82907 19.5618 6.95C19.1666 6.07093 18.5258 5.3248 17.7165 4.80142C16.9071 4.27805 15.9638 3.99974 15 4C14.7348 4 14.4804 4.10536 14.2929 4.29289C14.1054 4.48043 14 4.73478 14 5C14 5.26522 14.1054 5.51957 14.2929 5.70711C14.4804 5.89464 14.7348 6 15 6C15.7956 6 16.5587 6.31607 17.1213 6.87868C17.6839 7.44129 18 8.20435 18 9C17.9986 9.52524 17.8593 10.0409 17.5961 10.4954C17.3328 10.9499 16.9549 11.3274 16.5 11.59C16.3517 11.6755 16.2279 11.7977 16.1404 11.9447C16.0528 12.0918 16.0045 12.2589 16 12.43C15.9958 12.5998 16.0349 12.7678 16.1137 12.9183C16.1924 13.0687 16.3081 13.1967 16.45 13.29L16.84 13.55L16.97 13.62C18.1754 14.1917 19.1923 15.096 19.901 16.2263C20.6096 17.3566 20.9805 18.6659 20.97 20C20.97 20.2652 21.0754 20.5196 21.2629 20.7071C21.4504 20.8946 21.7048 21 21.97 21C22.2352 21 22.4896 20.8946 22.6771 20.7071C22.8646 20.5196 22.97 20.2652 22.97 20C22.9782 18.4654 22.5938 16.9543 21.8535 15.6101C21.1131 14.2659 20.0413 13.1333 18.74 12.32Z"/>
</svg>
